<svg xmlns="http://www.w3.org/2000/svg" xmlns:xlink="http://www.w3.org/1999/xlink" width="150" zoomAndPan="magnify" viewBox="0 0 375 374.999991" height="150" preserveAspectRatio="xMidYMid meet" version="1.0"><defs><g/><clipPath id="c7e1073111"><path d="M 94 115 L 222.988281 115 L 222.988281 262.5 L 94 262.5 Z M 94 115 " clip-rule="nonzero"/></clipPath></defs><g clip-path="url(#c7e1073111)"><path fill="#ffffff" d="M 213.222656 124.238281 C 207.414062 118.691406 199.628906 115.597656 191.605469 115.625 C 183.320312 115.65625 175.53125 118.90625 169.671875 124.777344 L 158.492188 135.976562 L 147.597656 125.058594 C 135.457031 112.894531 115.691406 112.511719 103.433594 124.5625 C 91.054688 136.722656 90.980469 156.714844 103.214844 168.96875 L 162.398438 228.273438 C 169.15625 235.042969 169.46875 246.0625 162.847656 252.960938 C 156.070312 260.015625 144.820312 260.097656 137.9375 253.203125 L 123.277344 238.515625 C 122.660156 237.894531 122.597656 236.914062 123.128906 236.214844 C 125.292969 233.363281 126.492188 229.734375 126.222656 225.828125 C 125.695312 218.117188 119.402344 211.914062 111.695312 211.511719 C 102.769531 211.046875 95.371094 218.246094 95.492188 227.113281 C 95.597656 235.328125 102.28125 242.109375 110.476562 242.316406 C 113.121094 242.382812 115.617188 241.777344 117.816406 240.660156 C 118.480469 240.320312 119.292969 240.464844 119.820312 240.992188 L 134.964844 256.171875 C 139.183594 260.402344 144.726562 262.511719 150.265625 262.511719 C 155.804688 262.511719 161.347656 260.398438 165.5625 256.171875 C 174 247.71875 174 233.964844 165.5625 225.511719 L 106.179688 166 C 95.65625 155.453125 95.65625 138.296875 106.179688 127.75 C 116.703125 117.203125 133.828125 117.203125 144.351562 127.75 L 156.957031 140.382812 C 157.378906 140.804688 157.9375 141.003906 158.492188 140.992188 C 159.050781 141.003906 159.609375 140.804688 160.03125 140.382812 L 172.386719 128 C 177.511719 122.867188 184.425781 119.84375 191.671875 119.828125 C 198.902344 119.816406 205.703125 122.628906 210.8125 127.75 C 215.917969 132.871094 218.726562 139.675781 218.714844 146.917969 C 218.707031 154.179688 215.683594 161.117188 210.558594 166.253906 L 206.566406 170.253906 C 206.238281 170.582031 205.792969 170.769531 205.328125 170.769531 L 193.425781 170.769531 C 192.765625 170.769531 192.15625 170.394531 191.863281 169.804688 L 186.113281 158.28125 C 185.46875 156.988281 183.632812 156.988281 182.992188 158.28125 L 173.109375 178.066406 C 172.464844 179.359375 170.628906 179.359375 169.984375 178.066406 L 166.613281 171.300781 C 165.96875 170.011719 164.132812 170.011719 163.488281 171.300781 L 160.113281 178.0625 C 159.472656 179.355469 157.632812 179.355469 156.992188 178.0625 L 147.117188 158.273438 C 146.476562 156.984375 144.636719 156.984375 143.996094 158.273438 L 138.246094 169.796875 C 137.949219 170.386719 137.34375 170.761719 136.683594 170.761719 L 126.148438 170.761719 C 125 170.761719 124 171.648438 123.964844 172.800781 C 123.929688 173.988281 124.882812 174.960938 126.0625 174.960938 L 139.277344 174.960938 C 139.9375 174.960938 140.542969 174.589844 140.835938 173.996094 L 143.996094 167.664062 C 144.636719 166.375 146.476562 166.375 147.117188 167.664062 L 156.992188 187.453125 C 157.632812 188.746094 159.472656 188.746094 160.113281 187.453125 L 163.488281 180.691406 C 164.132812 179.402344 165.96875 179.402344 166.613281 180.691406 L 169.984375 187.457031 C 170.628906 188.75 172.464844 188.75 173.109375 187.457031 L 182.984375 167.667969 C 183.625 166.378906 185.464844 166.375 186.105469 167.667969 L 189.265625 174 C 189.5625 174.589844 190.167969 174.964844 190.828125 174.964844 L 206.914062 174.964844 C 206.914062 174.964844 206.914062 174.964844 206.917969 174.964844 L 206.921875 174.964844 C 207.050781 174.964844 207.175781 174.953125 207.296875 174.929688 C 207.304688 174.929688 207.316406 174.925781 207.324219 174.925781 C 207.445312 174.902344 207.566406 174.867188 207.683594 174.824219 C 207.691406 174.820312 207.703125 174.816406 207.714844 174.8125 C 207.828125 174.761719 207.941406 174.703125 208.046875 174.636719 C 208.054688 174.628906 208.066406 174.625 208.078125 174.621094 C 208.1875 174.542969 208.292969 174.457031 208.390625 174.363281 C 208.394531 174.359375 208.394531 174.359375 208.398438 174.355469 L 213.46875 169.273438 C 219.472656 163.261719 222.972656 155.117188 222.910156 146.613281 C 222.839844 138.105469 219.398438 130.136719 213.222656 124.238281 Z M 99.683594 226.90625 C 99.683594 220.71875 104.707031 215.691406 110.875 215.691406 C 117.042969 215.691406 122.066406 220.722656 122.066406 226.90625 C 122.066406 233.089844 117.042969 238.117188 110.875 238.117188 C 104.707031 238.117188 99.683594 233.089844 99.683594 226.90625 Z M 99.683594 226.90625 " fill-opacity="1" fill-rule="nonzero"/></g><g fill="#ffffff" fill-opacity="1"><g transform="translate(169.049496, 210.599929)"><g><path d="M 2.203125 -16.796875 L 9.09375 -16.796875 C 11.601562 -16.796875 13.675781 -16.003906 15.3125 -14.421875 C 16.957031 -12.835938 17.78125 -10.828125 17.78125 -8.390625 C 17.78125 -5.960938 16.957031 -3.957031 15.3125 -2.375 C 13.664062 -0.789062 11.570312 0 9.03125 0 L 2.203125 0 Z M 5.046875 -14.25 L 5.046875 -2.546875 L 9.171875 -2.546875 C 10.816406 -2.546875 12.1875 -3.09375 13.28125 -4.1875 C 14.375 -5.28125 14.921875 -6.675781 14.921875 -8.375 C 14.921875 -10.070312 14.359375 -11.472656 13.234375 -12.578125 C 12.109375 -13.691406 10.710938 -14.25 9.046875 -14.25 Z M 5.046875 -14.25 "/></g></g></g><g fill="#ffffff" fill-opacity="1"><g transform="translate(190.84158, 210.599929)"><g><path d="M 9.09375 -5.59375 L 9.09375 0 L 6.28125 0 L 6.28125 -5.5 L 0.03125 -16.796875 L 2.875 -16.796875 L 7.6875 -8.609375 L 12.390625 -16.796875 L 15.265625 -16.796875 Z M 9.09375 -5.59375 "/></g></g></g><g fill="#ffffff" fill-opacity="1"><g transform="translate(209.321664, 210.599929)"><g><path d="M 9.703125 0 L 6.765625 0 L 0.078125 -16.796875 L 3.125 -16.796875 L 8.296875 -3.140625 L 13.53125 -16.796875 L 16.484375 -16.796875 Z M 9.703125 0 "/></g></g></g><g fill="#ffffff" fill-opacity="1"><g transform="translate(229.073747, 210.599929)"><g><path d="M 5.046875 0 L 2.203125 0 L 2.203125 -16.796875 L 5.046875 -16.796875 Z M 5.046875 0 "/></g></g></g><g fill="#ffffff" fill-opacity="1"><g transform="translate(239.513808, 210.599929)"><g><path d="M 16.78125 0 L 13.984375 0 L 5.046875 -12.046875 L 5.046875 0 L 2.203125 0 L 2.203125 -16.796875 L 4.984375 -16.796875 L 13.984375 -4.734375 L 13.984375 -16.796875 L 16.78125 -16.796875 Z M 16.78125 0 "/></g></g></g><g fill="#ffffff" fill-opacity="1"><g transform="translate(261.713898, 210.599929)"><g><path d="M 14.203125 -14.25 L 5.046875 -14.25 L 5.046875 -9.71875 L 13.25 -9.71875 L 13.25 -7.171875 L 5.046875 -7.171875 L 5.046875 -2.546875 L 14.5 -2.546875 L 14.5 0 L 2.203125 0 L 2.203125 -16.796875 L 14.203125 -16.796875 Z M 14.203125 -14.25 "/></g></g></g><g fill="#ffffff" fill-opacity="1"><g transform="translate(183.859716, 231.993501)"><g><path d="M 11.890625 0 L 9.875 0 L 9.875 -4.9375 L 3.5625 -4.9375 L 3.5625 0 L 1.5625 0 L 1.5625 -11.90625 L 3.5625 -11.90625 L 3.5625 -6.734375 L 9.875 -6.734375 L 9.875 -11.90625 L 11.890625 -11.90625 Z M 11.890625 0 "/></g></g></g><g fill="#ffffff" fill-opacity="1"><g transform="translate(197.300503, 231.993501)"><g><path d="M 2.390625 -10.21875 C 3.609375 -11.375 5.101562 -11.953125 6.875 -11.953125 C 8.65625 -11.953125 10.148438 -11.375 11.359375 -10.21875 C 12.578125 -9.070312 13.1875 -7.648438 13.1875 -5.953125 C 13.1875 -4.253906 12.578125 -2.820312 11.359375 -1.65625 C 10.148438 -0.5 8.65625 0.078125 6.875 0.078125 C 5.101562 0.078125 3.609375 -0.5 2.390625 -1.65625 C 1.179688 -2.820312 0.578125 -4.253906 0.578125 -5.953125 C 0.578125 -7.648438 1.179688 -9.070312 2.390625 -10.21875 Z M 6.90625 -10.15625 C 5.726562 -10.15625 4.71875 -9.75 3.875 -8.9375 C 3.039062 -8.125 2.625 -7.128906 2.625 -5.953125 C 2.625 -4.773438 3.046875 -3.773438 3.890625 -2.953125 C 4.734375 -2.128906 5.738281 -1.71875 6.90625 -1.71875 C 8.070312 -1.71875 9.066406 -2.128906 9.890625 -2.953125 C 10.722656 -3.773438 11.140625 -4.773438 11.140625 -5.953125 C 11.140625 -7.128906 10.722656 -8.125 9.890625 -8.9375 C 9.066406 -9.75 8.070312 -10.15625 6.90625 -10.15625 Z M 6.90625 -10.15625 "/></g></g></g><g fill="#ffffff" fill-opacity="1"><g transform="translate(211.06414, 231.993501)"><g><path d="M 3.5625 -1.8125 L 8.71875 -1.8125 L 8.71875 0 L 1.5625 0 L 1.5625 -11.90625 L 3.5625 -11.90625 Z M 3.5625 -1.8125 "/></g></g></g><g fill="#ffffff" fill-opacity="1"><g transform="translate(220.137954, 231.993501)"><g><path d="M 3.5625 0 L 1.5625 0 L 1.5625 -11.90625 L 3.5625 -11.90625 Z M 3.5625 0 "/></g></g></g><g fill="#ffffff" fill-opacity="1"><g transform="translate(225.269587, 231.993501)"><g><path d="M 5.46875 -11.984375 C 7.007812 -11.984375 8.398438 -11.578125 9.640625 -10.765625 L 8.8125 -9 C 7.59375 -9.726562 6.429688 -10.09375 5.328125 -10.09375 C 4.722656 -10.09375 4.25 -9.984375 3.90625 -9.765625 C 3.5625 -9.554688 3.390625 -9.253906 3.390625 -8.859375 C 3.390625 -8.460938 3.546875 -8.125 3.859375 -7.84375 C 4.171875 -7.5625 4.566406 -7.351562 5.046875 -7.21875 C 5.523438 -7.09375 6.039062 -6.929688 6.59375 -6.734375 C 7.144531 -6.535156 7.660156 -6.328125 8.140625 -6.109375 C 8.617188 -5.890625 9.015625 -5.546875 9.328125 -5.078125 C 9.640625 -4.609375 9.796875 -4.035156 9.796875 -3.359375 C 9.796875 -2.316406 9.378906 -1.484375 8.546875 -0.859375 C 7.710938 -0.242188 6.628906 0.0625 5.296875 0.0625 C 4.390625 0.0625 3.507812 -0.101562 2.65625 -0.4375 C 1.8125 -0.78125 1.070312 -1.238281 0.4375 -1.8125 L 1.3125 -3.546875 C 1.90625 -2.992188 2.5625 -2.566406 3.28125 -2.265625 C 4.007812 -1.960938 4.695312 -1.8125 5.34375 -1.8125 C 6.039062 -1.8125 6.582031 -1.9375 6.96875 -2.1875 C 7.363281 -2.445312 7.5625 -2.804688 7.5625 -3.265625 C 7.5625 -3.671875 7.398438 -4.007812 7.078125 -4.28125 C 6.765625 -4.5625 6.367188 -4.765625 5.890625 -4.890625 C 5.421875 -5.023438 4.90625 -5.1875 4.34375 -5.375 C 3.789062 -5.5625 3.273438 -5.757812 2.796875 -5.96875 C 2.328125 -6.1875 1.929688 -6.523438 1.609375 -6.984375 C 1.296875 -7.453125 1.140625 -8.015625 1.140625 -8.671875 C 1.140625 -9.679688 1.535156 -10.484375 2.328125 -11.078125 C 3.117188 -11.679688 4.164062 -11.984375 5.46875 -11.984375 Z M 5.46875 -11.984375 "/></g></g></g><g fill="#ffffff" fill-opacity="1"><g transform="translate(235.838709, 231.993501)"><g><path d="M 9.6875 -10.09375 L 5.921875 -10.09375 L 5.921875 0 L 3.90625 0 L 3.90625 -10.09375 L 0.15625 -10.09375 L 0.15625 -11.90625 L 9.6875 -11.90625 Z M 9.6875 -10.09375 "/></g></g></g><g fill="#ffffff" fill-opacity="1"><g transform="translate(245.67716, 231.993501)"><g><path d="M 3.5625 0 L 1.5625 0 L 1.5625 -11.90625 L 3.5625 -11.90625 Z M 3.5625 0 "/></g></g></g><g fill="#ffffff" fill-opacity="1"><g transform="translate(250.808793, 231.993501)"><g><path d="M 6.828125 -11.953125 C 7.671875 -11.953125 8.488281 -11.789062 9.28125 -11.46875 C 10.082031 -11.144531 10.773438 -10.691406 11.359375 -10.109375 L 10.1875 -8.65625 C 9.75 -9.113281 9.234375 -9.476562 8.640625 -9.75 C 8.054688 -10.03125 7.46875 -10.171875 6.875 -10.171875 C 5.675781 -10.171875 4.664062 -9.765625 3.84375 -8.953125 C 3.03125 -8.140625 2.625 -7.148438 2.625 -5.984375 C 2.625 -4.804688 3.03125 -3.8125 3.84375 -3 C 4.664062 -2.1875 5.675781 -1.78125 6.875 -1.78125 C 8.101562 -1.78125 9.207031 -2.253906 10.1875 -3.203125 L 11.375 -1.875 C 10.757812 -1.269531 10.039062 -0.789062 9.21875 -0.4375 C 8.40625 -0.09375 7.585938 0.078125 6.765625 0.078125 C 5.015625 0.078125 3.546875 -0.5 2.359375 -1.65625 C 1.171875 -2.820312 0.578125 -4.257812 0.578125 -5.96875 C 0.578125 -7.65625 1.179688 -9.070312 2.390625 -10.21875 C 3.597656 -11.375 5.078125 -11.953125 6.828125 -11.953125 Z M 6.828125 -11.953125 "/></g></g></g><g fill="#ffffff" fill-opacity="1"><g transform="translate(196.448678, 251.843479)"><g><path d="M 14.140625 0 L 12.296875 0 L 12.28125 -8.890625 L 8.515625 -1.234375 L 7.203125 -1.234375 L 3.453125 -8.890625 L 3.453125 0 L 1.5625 0 L 1.5625 -11.90625 L 3.9375 -11.90625 L 7.875 -4 L 11.78125 -11.90625 L 14.140625 -11.90625 Z M 14.140625 0 "/></g></g></g><g fill="#ffffff" fill-opacity="1"><g transform="translate(212.166416, 251.843479)"><g><path d="M 9.25 -2.6875 L 3.25 -2.6875 L 2.109375 0 L 0.015625 0 L 5.265625 -11.90625 L 7.328125 -11.90625 L 12.53125 0 L 10.390625 0 Z M 8.484375 -4.46875 L 6.234375 -9.765625 L 4 -4.46875 Z M 8.484375 -4.46875 "/></g></g></g><g fill="#ffffff" fill-opacity="1"><g transform="translate(224.706622, 251.843479)"><g><path d="M 11.890625 0 L 9.90625 0 L 3.5625 -8.53125 L 3.5625 0 L 1.5625 0 L 1.5625 -11.90625 L 3.53125 -11.90625 L 9.90625 -3.34375 L 9.90625 -11.90625 L 11.890625 -11.90625 Z M 11.890625 0 "/></g></g></g><g fill="#ffffff" fill-opacity="1"><g transform="translate(238.164403, 251.843479)"><g><path d="M 9.25 -2.6875 L 3.25 -2.6875 L 2.109375 0 L 0.015625 0 L 5.265625 -11.90625 L 7.328125 -11.90625 L 12.53125 0 L 10.390625 0 Z M 8.484375 -4.46875 L 6.234375 -9.765625 L 4 -4.46875 Z M 8.484375 -4.46875 "/></g></g></g><g fill="#ffffff" fill-opacity="1"><g transform="translate(250.704609, 251.843479)"><g><path d="M 9.703125 -5.84375 L 11.453125 -5.84375 L 11.453125 -1.46875 C 10.847656 -1 10.128906 -0.625 9.296875 -0.34375 C 8.460938 -0.0625 7.640625 0.078125 6.828125 0.078125 C 5.078125 0.078125 3.597656 -0.5 2.390625 -1.65625 C 1.179688 -2.820312 0.578125 -4.253906 0.578125 -5.953125 C 0.578125 -7.648438 1.1875 -9.070312 2.40625 -10.21875 C 3.632812 -11.375 5.148438 -11.953125 6.953125 -11.953125 C 7.796875 -11.953125 8.617188 -11.800781 9.421875 -11.5 C 10.234375 -11.195312 10.9375 -10.789062 11.53125 -10.28125 L 10.390625 -8.8125 C 9.410156 -9.71875 8.265625 -10.171875 6.953125 -10.171875 C 5.742188 -10.171875 4.71875 -9.757812 3.875 -8.9375 C 3.039062 -8.125 2.625 -7.128906 2.625 -5.953125 C 2.625 -4.765625 3.046875 -3.757812 3.890625 -2.9375 C 4.734375 -2.125 5.757812 -1.71875 6.96875 -1.71875 C 7.882812 -1.71875 8.796875 -1.988281 9.703125 -2.53125 Z M 9.703125 -5.84375 "/></g></g></g><g fill="#ffffff" fill-opacity="1"><g transform="translate(263.431732, 251.843479)"><g><path d="M 10.0625 -10.09375 L 3.5625 -10.09375 L 3.5625 -6.890625 L 9.390625 -6.890625 L 9.390625 -5.078125 L 3.5625 -5.078125 L 3.5625 -1.796875 L 10.265625 -1.796875 L 10.265625 0 L 1.5625 0 L 1.5625 -11.90625 L 10.0625 -11.90625 Z M 10.0625 -10.09375 "/></g></g></g><g fill="#ffffff" fill-opacity="1"><g transform="translate(274.578586, 251.843479)"><g><path d="M 14.140625 0 L 12.296875 0 L 12.28125 -8.890625 L 8.515625 -1.234375 L 7.203125 -1.234375 L 3.453125 -8.890625 L 3.453125 0 L 1.5625 0 L 1.5625 -11.90625 L 3.9375 -11.90625 L 7.875 -4 L 11.78125 -11.90625 L 14.140625 -11.90625 Z M 14.140625 0 "/></g></g></g><g fill="#ffffff" fill-opacity="1"><g transform="translate(290.296323, 251.843479)"><g><path d="M 10.0625 -10.09375 L 3.5625 -10.09375 L 3.5625 -6.890625 L 9.390625 -6.890625 L 9.390625 -5.078125 L 3.5625 -5.078125 L 3.5625 -1.796875 L 10.265625 -1.796875 L 10.265625 0 L 1.5625 0 L 1.5625 -11.90625 L 10.0625 -11.90625 Z M 10.0625 -10.09375 "/></g></g></g><g fill="#ffffff" fill-opacity="1"><g transform="translate(301.443177, 251.843479)"><g><path d="M 11.890625 0 L 9.90625 0 L 3.5625 -8.53125 L 3.5625 0 L 1.5625 0 L 1.5625 -11.90625 L 3.53125 -11.90625 L 9.90625 -3.34375 L 9.90625 -11.90625 L 11.890625 -11.90625 Z M 11.890625 0 "/></g></g></g><g fill="#ffffff" fill-opacity="1"><g transform="translate(314.900959, 251.843479)"><g><path d="M 9.6875 -10.09375 L 5.921875 -10.09375 L 5.921875 0 L 3.90625 0 L 3.90625 -10.09375 L 0.15625 -10.09375 L 0.15625 -11.90625 L 9.6875 -11.90625 Z M 9.6875 -10.09375 "/></g></g></g></svg>